<svg xmlns="http://www.w3.org/2000/svg" width="1600" height="900"><rect width="1600" height="900" fill="#102d33"/><circle cx="1160" cy="470" r="260" fill="#6bc5a4"/><path d="M990 390c70-80 150-105 245-70 55 20 100 60 130 120-70-12-125 2-165 42-48 50-118 66-205 42-40-11-65-47-57-82 6-22 23-39 52-52Z" fill="#d9f1c7"/><path d="M1090 590c65-45 135-45 210 0-22 78-78 135-170 170-50-48-63-105-40-170Z" fill="#d9f1c7"/><text x="90" y="150" fill="white" font-family="Arial" font-size="92" font-weight="700">FUTURE EARTH</text></svg>